Patient4_TMGait_0pt7_02_right_47_EMG.mot
version=1
nRows=23
nColumns=33
inDegrees=no
endheader
time	1LAddLong	2LGlutMax	3LGlutMed	4LIliopsoas	5LSemiMemb	6LBicFemLong	7LRecFem	8LVastMed	9LVastLat	10LGasMed	11LTibAnt	12lTibPost	13LPeroneusLong	14LSol	15LExtDigLong	16LFlexDigLong	17RAddLong	18RGlutMax	19RGlutMed	20RIliopsoas	21RSemiMemb	22RBicFemLong	23RRecFem	24RVastMed	25RVastLat	26RGasMed	27RTibAnt	28RTibPost	29RPeroneusLong	30RSol	31RExtDigLong	32RFlexDigLong
53.24	-0.000153	-0.26184	0.17685	0.011292	0.010834	0.11185	0.059662	0.018463	-0.053711	-0.018921	0.012054	0.00061	-0.21484	-0.0383	-0.048523	0.002441	0.078583	-0.098267	1.0689	-0.037079	-0.015411	0.11566	-0.008087	-0.16663	-0.013733	0.12833	-0.033722	-0.006866	0.14603	0.005035	-0.001068	-0.011902
53.241	-0.001678	-0.22919	0.1593	0.00824	-0.033264	0.082855	0.016632	0.019379	-0.030212	0.001984	0.01358	-0.005493	-0.13733	-0.066833	-0.040741	-0.016327	0.065002	-0.12772	0.6543	0.017853	-0.010223	0.11917	-0.007019	-0.13275	-0.027313	0.11719	0.011749	-0.013428	0.12375	0.00351	-0.000458	-0.009766
53.242	-0.00473	-0.27008	0.058594	0.006561	-0.094299	0.15411	0.0177	0.016479	-0.028687	0.021515	0.001526	0.003357	-0.19241	0.029144	0.002594	-0.007629	0.04303	-0.16327	0.26977	0.12558	-0.022125	0.10239	-0.03418	-0.14816	-0.027008	0.11002	0.057373	-0.004425	0.096436	0.048523	0.002899	-0.015564
53.243	-0.005493	-0.31509	0.050354	0.014496	-0.13962	0.16815	0.015106	0.013885	-0.001373	0.01297	-0.002594	0.008698	0.12909	0.078583	0.063324	-0.007019	0.041351	-0.19486	0.19913	0.15533	-0.018768	0.11017	-0.004883	-0.095062	-0.011597	0.095215	0.079651	-0.002441	-0.028992	0.036621	-0.000916	-0.014801
53.244	0.00473	-0.27191	0.11734	0.030212	-0.10696	0.15961	0.001984	-0.000916	0.031433	0.000305	-0.019684	-0.002136	0.14816	0.06424	0.028076	-0.012207	-0.009155	-0.16266	0.34546	0.11429	-0.014954	0.11993	0.000153	-0.10681	-0.021362	0.07782	0.15472	0.000916	-0.26062	-0.024414	0.001984	-0.023499
53.245	0.014496	-0.28748	0.086823	0.03067	0.009003	-0.040131	0.001221	0.003815	0.032501	-0.030212	-0.06897	0.011292	0.46127	0.04425	0.009308	-0.001068	0.017395	-0.16174	1.1217	0.096893	-0.011139	0.1236	-0.058289	-0.10849	-0.010223	0.066833	0.12878	0.001526	-0.29617	-0.009613	-0.000153	-0.020142
53.246	0.008698	-0.23682	0.072937	0.007324	0.005646	0.052643	-0.01358	-0.00946	0.011749	-0.018005	-0.029449	0.001678	-0.050201	0.044708	-0.010071	-0.011139	0.10284	-0.14984	0.56519	0.082245	-0.015564	0.10513	-0.050812	-0.077057	-0.010223	0.050049	0.035706	-0.001984	-0.21851	0.021973	0.000458	-0.020599
53.247	0.019531	-0.20523	0.11108	-0.004272	-0.062256	0.31921	-0.066986	-0.001373	0.02533	0.036469	-0.007782	0.013123	-0.26657	-0.046844	-0.072174	0.000305	0.082092	-0.18524	0.18829	0.018768	0.006866	0.084534	-0.096741	-0.092926	-0.01709	0.040588	0.001831	-0.002136	-0.014191	0	0.001221	-0.027161
53.248	0.017395	-0.15533	0.07782	0.002441	-0.055084	0.28381	0.002136	-0.000458	0.014038	0.037384	-0.001526	0.010376	-0.059662	-0.030975	0.025635	-0.003967	0.05188	-0.15533	0.3656	0.006866	0.034485	0.088196	-0.095367	-0.065613	-0.000458	0.022125	0.005798	-0.001984	0.1387	-0.020905	0.003967	-0.019836
53.249	0.01709	-0.12878	0.094757	-0.014648	0.06134	0.29709	0.040741	-0.00412	0.018463	0.034485	0.015717	0.011902	-0.072021	0.054016	0.084686	-0.004883	0.001221	-0.16617	0.86319	-0.015411	0.013123	0.097046	-0.13534	-0.053711	0.001526	0.006866	0.17639	0.000916	0.11902	-0.043488	0.00061	-0.007935
53.25	0.022736	-0.19882	0.16174	-0.01358	0.13428	0.061493	-0.00412	0.001526	-0.006866	0.031891	0.013275	0.012207	-0.15396	0.05127	0.041199	-0.014801	-0.072937	-0.13443	1.0709	-0.11154	-0.041046	0.10834	-0.13519	-0.10193	0.014038	0.000916	0.36789	-0.003052	0.095978	-0.064392	0.001831	-0.011444
53.251	0.029907	-0.18601	0.15762	0.021515	0.10468	-0.11932	0.024414	-0.007324	-0.004272	0.037537	-0.00824	0.012054	-0.082092	0.059052	-0.003357	-0.002747	-0.1181	-0.11444	0.71808	-0.1355	-0.047455	0.12558	-0.14999	-0.064392	0.018921	-0.013428	0.25681	0	0.048828	-0.12283	-0.001678	-0.002747
53.252	0.02243	-0.12192	0.10834	0.000458	0.049591	-0.32745	0.072327	-0.008698	0.055847	-0.010376	-0.004883	0.013885	-0.050964	0.027008	-0.006104	-0.009003	-0.18616	-0.11032	0.6131	-0.093842	-0.030365	0.1152	-0.14938	-0.096893	0.02182	-0.019836	0.20081	0.002747	-0.014801	-0.083466	-0.002441	-0.001373
53.253	0.020752	-0.18326	0.022278	0.019073	0.065918	-0.39719	0.11719	-0.006561	0.073395	-0.14648	-0.02182	0.017242	-0.02182	-0.020447	-0.019226	-0.000916	-0.19577	-0.07309	0.49271	-0.022278	-0.01709	0.11307	-0.16266	-0.10117	0.021057	-0.027161	0.25192	0.001221	-0.026855	-0.045776	-0.001984	-0.00061
53.254	0.019379	-0.20172	0.092163	0.010529	0.062714	-0.20477	0.12436	0.001373	0.036011	-0.088196	-0.032654	0.021362	0.020599	-0.009918	-0.009308	0.00351	-0.18829	-0.098267	0.55313	0.088959	-0.006104	0.089569	-0.12024	-0.085449	0.012207	-0.029297	0.19806	-0.001984	0.005951	-0.059052	-0.00061	0.001068
53.255	0.022125	-0.20554	0.061493	-0.007782	0.027771	0.019073	0.092163	0.00824	0.001831	0.020294	-0.054169	0.016479	-0.038605	-0.021515	-0.002594	-0.009918	-0.15869	-0.080414	0.37521	0.097809	0.001373	0.10468	-0.13473	-0.072784	0.009918	-0.032196	-0.05188	0.001984	-0.08316	-0.065918	-0.000458	-0.015564
53.256	0.020447	-0.2327	-0.009918	-0.001373	-0.003967	0.22079	0.055084	0.006409	-0.012817	0.058441	-0.044098	0.020905	-0.087433	0.074463	0.012054	-0.003357	-0.072327	-0.047302	0.30334	-0.034485	0.013733	0.096283	-0.11673	-0.051422	0.007324	-0.037384	0.014496	-0.000153	-0.17227	-0.06134	0.000916	-0.010071
53.257	0.014496	-0.23514	-0.075073	-0.004425	-0.009766	0.27786	0.034637	0.000305	0.021515	0.059814	-0.026703	0.018768	0.05249	0.007019	-0.055084	-0.005188	-0.015259	-0.059204	0.63782	-0.090027	0.019989	0.058289	-0.11444	-0.089264	0.008545	-0.036469	0.04303	0.000916	-0.14328	-0.080872	-0.000458	-0.012817
53.258	0.013275	-0.22766	-0.08667	0.011902	0.034485	0.25421	0.054321	0.001221	0.020447	0.056458	0.025024	0.011597	0.28564	-0.005798	-0.12207	0.007477	0.053406	-0.046539	0.42374	-0.033417	0.028076	0.058441	-0.11307	-0.070343	0.010529	-0.035706	0.014801	0.000305	-0.072327	-0.092316	-0.001068	-0.007477
53.259	0.010529	-0.23331	-0.058746	0.014343	0.043945	0.1683	0.016785	0.006714	0.013123	0.10742	0.049133	0.014496	-0.052948	-0.031128	-0.11917	-0.009003	0.037689	-0.075531	0.24735	0.027924	0.033875	0.05661	-0.10117	-0.048218	0.011902	-0.033875	-0.032196	-0.006409	-0.003815	-0.095673	0.000763	-0.010376
53.26	0.012512	-0.24231	-0.000458	0.022888	0.041504	-0.10101	-0.10025	0.007629	0.033875	0.18524	0.031586	0.024414	0.085297	-0.001831	-0.089722	-0.022278	0.041962	-0.09552	0.61203	-0.062256	0.017853	0.05188	-0.059204	-0.028687	0.01358	-0.031891	0.065308	-0.001526	0.11154	-0.072632	-0.003967	-0.013275
53.261	0.003815	-0.2095	0.037079	0.009308	0.040436	-0.54596	-0.074615	0.002441	0.078583	0.1474	0.020294	0.019836	1.1122	0.01358	-0.04425	-0.00412	0.043335	-0.095062	0.85648	-0.09964	0.011139	0.090332	-0.032043	-0.02243	0.016937	-0.031586	0.20706	-0.003967	0.11734	-0.053406	-0.001831	-0.017395
53.262	0.001984	-0.21332	-0.013275	0.006714	0.031738	-0.43472	-0.010986	-0.004883	0.10635	0.054779	0.026703	0.017548	1.0039	0.037079	0.050964	0.001068	0.010986	-0.10956	0.93903	-0.093384	-0.03067	0.094604	-0.042572	-0.018005	0.011292	-0.033875	0.35202	-0.00473	0.007019	-0.11429	-0.001526	-0.020447
